{
  "accessors": [
    {
      "bufferView": 1,
      "componentType": 5126,
      "count": 51104,
      "max": [
        1.0994894504547119,
        1.487317681312561,
        1.2503688335418701
      ],
      "min": [
        -1.0994797945022583,
        -1.293612003326416,
        -3.1861114501953125
      ],
      "type": "VEC3"
    },
    {
      "bufferView": 1,
      "byteOffset": 613248,
      "componentType": 5126,
      "count": 51104,
      "max": [
        0.99999052286148071,
        0.99997150897979736,
        0.99994593858718872
      ],
      "min": [
        -0.99998921155929565,
        -1,
        -1
      ],
      "type": "VEC3"
    },
    {
      "bufferView": 0,
      "componentType": 5125,
      "count": 298998,
      "max": [
        51103
      ],
      "min": [
        0
      ],
      "type": "SCALAR"
    }
  ],
  "asset": {
    "extras": {
      "author": "fabianoaraujo (https://sketchfab.com/fabianoaraujo)",
      "license": "CC-BY-4.0 (http://creativecommons.org/licenses/by/4.0/)",
      "source": "https://sketchfab.com/3d-models/simple-asaro-head-fd74ad764a4e4619b72733316dc574b4",
      "title": "Simple Asaro Head"
    },
    "generator": "Sketchfab-8.72.3",
    "version": "2.0"
  },
  "bufferViews": [
    {
      "buffer": 0,
      "byteLength": 1195992,
      "byteOffset": 0,
      "name": "floatBufferViews",
      "target": 34963
    },
    {
      "buffer": 0,
      "byteLength": 1226496,
      "byteOffset": 1195992,
      "byteStride": 12,
      "name": "floatBufferViews",
      "target": 34962
    }
  ],
  "buffers": [
    {
      "byteLength": 2422488,
      "uri": "scene.bin"
    }
  ],
  "materials": [
    {
      "doubleSided": true,
      "emissiveFactor": [
        0,
        0,
        0
      ],
      "name": "material_0",
      "pbrMetallicRoughness": {
        "baseColorFactor": [
          1,
          1,
          1,
          1
        ],
        "metallicFactor": 0,
        "roughnessFactor": 0.59999999999999998
      }
    }
  ],
  "meshes": [
    {
      "primitives": [
        {
          "attributes": {
            "NORMAL": 1,
            "POSITION": 0
          },
          "indices": 2,
          "material": 0,
          "mode": 4
        }
      ]
    }
  ],
  "nodes": [
    {
      "children": [
        1
      ],
      "name": "RootNode (gltf orientation matrix)",
      "rotation": [
        -0.70710678118654746,
        -0,
        -0,
        0.70710678118654757
      ]
    },
    {
      "children": [
        2
      ],
      "matrix": [
        0.99998682737350464,
        -1.1102230246251565e-16,
        -0.0051277372986078262,
        0,
        1.1102230246251565e-16,
        1,
        -2.846484876629529e-19,
        0,
        0.0051277372986078262,
        -2.846484876629529e-19,
        0.99998682737350464,
        0,
        0.0049629621207714081,
        0,
        -1.269787571800407e-05,
        1
      ],
      "name": "RootNode (model correction matrix)"
    },
    {
      "children": [
        3
      ],
      "name": "simpleAsaroHead01.OBJ.cleaner.gles"
    },
    {
      "mesh": 0,
      "name": ""
    }
  ],
  "scene": 0,
  "scenes": [
    {
      "name": "OSG_Scene",
      "nodes": [
        0
      ]
    }
  ]
}

